<?xml version="1.0" standalone="no"?>
<!DOCTYPE svg PUBLIC "-//W3C//DTD SVG 20010904//EN"
 "http://www.w3.org/TR/2001/REC-SVG-20010904/DTD/svg10.dtd">
<svg version="1.0" xmlns="http://www.w3.org/2000/svg"
 width="225.000000pt" height="225.000000pt" viewBox="0 0 225.000000 225.000000"
 preserveAspectRatio="xMidYMid meet">

<g transform="translate(0.000000,225.000000) scale(0.100000,-0.100000)"
fill="#000000" stroke="none">
<path d="M1013 2040 c-364 -66 -605 -423 -528 -784 23 -107 71 -198 178 -335
160 -205 308 -435 453 -703 7 -13 25 12 84 120 92 167 258 418 380 572 49 63
108 151 130 195 210 419 -83 918 -553 940 -50 2 -115 0 -144 -5z m189 -271
c121 -26 217 -103 271 -217 29 -60 32 -76 32 -157 -1 -69 -6 -103 -24 -147
-31 -81 -106 -159 -189 -200 -62 -31 -74 -33 -167 -33 -93 0 -105 2 -167 33
-83 41 -158 119 -189 200 -18 44 -23 78 -24 147 0 80 3 97 31 155 52 110 145
188 259 216 65 16 102 17 167 3z"/>
</g>
</svg>
